<?xml version="1.0" encoding="UTF-8" standalone="no" ?>
<!DOCTYPE svg PUBLIC "-//W3C//DTD SVG 1.1//EN" "http://www.w3.org/Graphics/SVG/1.1/DTD/svg11.dtd">
<svg xmlns="http://www.w3.org/2000/svg" xmlns:xlink="http://www.w3.org/1999/xlink" version="1.1" width="500" height="500" viewBox="0 0 500 500" xml:space="preserve">
<desc>Created with Fabric.js 3.6.3</desc>
<defs>
</defs>
<rect x="0" y="0" width="100%" height="100%" fill="#ffffff"></rect>
<g transform="matrix(9.143887707382516 0 0 9.143887707382516 250 249.70514825399206)"  >
<path style="stroke: none; stroke-width: 0; stroke-dasharray: none; stroke-linecap: butt; stroke-dashoffset: 0; stroke-linejoin: miter; stroke-miterlimit: 4; fill: rgb(0,129,112); fill-rule: nonzero; opacity: 1;"  transform=" translate(-16.000230700918063, -16.03386433514914)" d="M 16.586 30 a 2.359 2.359 0 0 1 -0.423 -0.038 A 2.163 2.163 0 0 1 14.369 28 l -0.79 -9.968 L 3.851 16.455 a 2.164 2.164 0 0 1 -0.521 -4.137 L 26.908 2.252 a 2.216 2.216 0 0 1 2.486 0.5 a 2.133 2.133 0 0 1 0.394 2.412 L 18.57 28.748 A 2.177 2.177 0 0 1 16.586 30 Z M 27.8 4.069 a 0.262 0.262 0 0 0 -0.1 0.022 L 4.115 14.158 a 0.152 0.152 0 0 0 -0.114 0.17 a 0.174 0.174 0 0 0 0.169 0.152 l 11.279 1.825 l 0.914 11.532 c 0 0.039 0.01 0.13 0.163 0.158 a 0.2 0.2 0 0 0 0.238 -0.106 L 27.982 4.307 a 0.13 0.13 0 0 0 -0.031 -0.168 A 0.214 0.214 0 0 0 27.8 4.069 Z" stroke-linecap="round" />
</g>
<g transform="matrix(0.36 0 0 0.07 249.49999999999997 249.99999999999997)"  >
<rect style="stroke: none; stroke-width: 1; stroke-dasharray: none; stroke-linecap: butt; stroke-dashoffset: 0; stroke-linejoin: miter; stroke-miterlimit: 4; fill: rgb(255,255,255); fill-rule: evenodd; opacity: 1;"  x="-393.5" y="-393.5" rx="0" ry="0" width="787" height="787" />
</g>
<g transform="matrix(1 0 0 1 239.99733729319692 250.25)" style=""  ><path fill="#000000" opacity="1" d="M-72.73-1.90L-80.60-1.90C-81.42-1.90-81.64-1.50-81.64-0.86L-81.64 1.94C-81.64 2.59-81.42 2.98-80.60 2.98L-77.36 2.98C-77.36 5.75-79.02 6.83-81.35 6.83C-83.72 6.83-85.30 5.50-85.30 3.20L-85.30-4.02C-85.30-6.31-83.72-7.89-81.35-7.89C-78.94-7.89-77.65-6.82-77.26-5.70C-77.08-5.20-77.22-4.48-76.22-4.48L-72.73-4.48C-71.91-4.48-71.69-4.63-71.69-5.49C-71.69-10.30-76.86-12.88-81.35-12.88C-85.59-12.88-91.01-10.48-91.01-4.81L-91.01 4.03C-91.01 9.66-85.59 11.82-81.35 11.82C-77.26 11.82-72.02 9.52-71.69 4.35L-71.69-0.86C-71.69-1.50-71.91-1.90-72.73-1.90Z"/><path fill="#000000" opacity="1" d="M-53.35-12.34L-61.42-12.34C-62.25-12.34-62.47-11.95-62.47-11.30L-62.47 10.24C-62.47 11.06-62.07 11.28-61.42 11.28L-57.87 11.28C-57.22 11.28-56.83 11.06-56.83 10.24L-56.83 4.28L-53.38 4.28C-47.24 4.28-43.94 0.97-43.94-4.02C-43.94-8.97-47.17-12.34-53.35-12.34ZM-53.38-0.57L-56.83-0.57L-56.83-7.28L-53.38-7.28C-50.58-7.28-49.36-5.77-49.36-3.91C-49.36-2.11-50.58-0.57-53.38-0.57Z"/><path fill="#000000" opacity="1" d="M-24.16-2.44C-25.60-3.01-30.87-3.80-30.87-5.99C-30.87-7.61-28.90-8.07-27.71-8.07C-26.64-8.07-25.35-7.75-24.66-7.10C-24.23-6.67-24.05-6.39-23.91-6.03C-23.73-5.56-23.62-5.06-22.94-5.06L-19.42-5.06C-18.60-5.06-18.38-5.20-18.38-6.06C-18.38-10.80-23.37-12.88-27.93-12.88C-32.42-12.70-36.65-10.41-36.65-5.74C-36.65-1.18-33.32 0.26-29.69 1.41C-26.64 2.37-23.44 2.41-23.44 4.42C-23.44 6.43-25.02 6.86-26.96 6.86C-28.29 6.86-29.76 6.54-30.48 5.68C-30.95 5.14-31.13 4.67-31.16 4.21C-31.23 3.31-31.63 3.20-32.45 3.20L-35.94 3.20C-36.76 3.20-36.98 3.38-36.98 4.21C-36.98 9.23-31.81 11.82-27.32 11.82C-21.79 11.82-17.77 9.37-17.77 4.28C-17.77-0.61-21.58-1.65-24.16-2.44Z"/><path fill="#000000" opacity="1" d="M2.26-0.82L8.72-11.34C8.98-11.73 8.80-12.34 8.19-12.34L3.98-12.34C3.27-12.34 3.02-12.06 2.51-11.30L-1.04-5.52L-4.63-11.30C-5.10-12.06-5.38-12.34-6.07-12.34L-10.30-12.34C-10.91-12.34-11.06-11.73-10.84-11.34L-4.34-0.82L-10.73 10.16C-11.02 10.60-10.84 11.28-10.30 11.28L-6.21 11.28C-5.42 11.28-5.10 11.21-4.63 10.27L-1.04 3.88L2.51 10.27C3.02 11.21 3.30 11.28 4.09 11.28L8.19 11.28C8.72 11.28 8.90 10.60 8.62 10.16Z"/><path fill="#000000" opacity="1" d="M25.85-12.34L17.77-12.34C16.94-12.34 16.73-11.95 16.73-11.30L16.73 10.24C16.73 11.06 17.12 11.28 17.77 11.28L21.32 11.28C21.97 11.28 22.37 11.06 22.37 10.24L22.37 4.28L25.81 4.28C31.95 4.28 35.25 0.97 35.25-4.02C35.25-8.97 32.02-12.34 25.85-12.34ZM25.81-0.57L22.37-0.57L22.37-7.28L25.81-7.28C28.61-7.28 29.83-5.77 29.83-3.91C29.83-2.11 28.61-0.57 25.81-0.57Z"/><path fill="#000000" opacity="1" d="M63.26 10.13L58.19 2.77C60.42 2.02 63.18-0.61 63.18-4.37C63.18-6.67 62.43-8.72 61.10-10.01C59.59-11.52 57.87-12.31 53.96-12.31L44.91-12.31C44.09-12.31 43.91-11.91 43.91-11.27L43.91 10.24C43.91 11.06 44.26 11.28 44.91 11.28L48.47 11.28C49.11 11.28 49.51 11.06 49.51 10.24L49.51-7.28L54.28-7.28C56.15-7.28 57.58-6.10 57.58-4.23C57.58-2.54 55.93-1.32 54.17-1.32L53.46-1.32C52.63-1.32 52.41-0.93 52.41-0.28L52.41 2.59C52.41 3.60 52.49 3.99 52.81 4.42L56.69 10.20C57.19 10.95 57.62 11.28 58.48 11.28L62.72 11.28C63.40 11.28 63.58 10.63 63.26 10.13Z"/><path fill="#000000" opacity="1" d="M91.01-4.77C91.01-10.44 85.62-12.88 81.35-12.88C77.08-12.88 71.76-10.44 71.76-4.77L71.76 3.70C71.76 9.37 77.08 11.82 81.35 11.82C85.62 11.82 91.01 9.37 91.01 3.70ZM85.37 3.20C85.37 5.50 83.72 6.83 81.35 6.83C79.02 6.83 77.36 5.50 77.36 3.20L77.36-4.27C77.36-6.56 79.02-7.89 81.35-7.89C83.72-7.89 85.37-6.56 85.37-4.27Z"/></g></svg>